<svg xmlns="http://www.w3.org/2000/svg" width="428" height="140" viewBox="0 0 428 140" fill="none">
<path d="M349.581 83.8156V81.7276L330.427 82.9566C321.464 83.5696 318.025 87.1306 318.025 93.2696C318.025 100.514 322.691 103.83 330.059 103.83C341.231 103.83 349.581 96.2166 349.581 83.8156ZM307.221 93.7616C307.221 82.9566 314.71 76.2036 329.076 75.2206L344.792 74.1156C347.739 73.8696 349.212 72.6416 349.212 68.5906C349.212 59.8726 342.705 56.5576 334.724 56.5576C325.638 56.5576 320.236 60.8556 319.253 68.5906H308.94C310.782 54.5936 320.113 47.4716 334.969 47.4716C350.318 47.4716 360.017 55.0836 360.017 72.3966V101.62H364.929V110.951H360.386C354.247 110.951 350.686 107.145 350.686 100.147V99.2866C347.003 107.882 339.145 112.793 328.585 112.793C315.079 112.793 307.221 104.69 307.221 93.7616Z" fill="#ffffff"/>
<path d="M369.14 80.132C369.14 60.364 381.172 47.472 398.977 47.472C414.079 47.472 424.884 56.803 426.848 72.397H416.289C414.939 62.942 407.939 56.803 398.854 56.803C387.68 56.803 380.068 66.012 380.068 80.132C380.068 94.252 387.803 103.461 398.977 103.461C408.062 103.461 415.675 97.199 417.025 87.499H427.463C425.743 103.215 414.201 112.792 398.977 112.792C381.172 112.792 369.14 99.9 369.14 80.132Z" fill="#ffffff"/>
<path d="M151 28V38.209H178.862V110.932H190.077V48.509C190.077 44.347 187.966 40.468 184.47 38.209H190.077H217.939V28H151Z" fill="#ffffff"/>
<path d="M219.206 74.7296C220.434 63.4336 227.31 56.4346 237.255 56.4346C249.043 56.4346 255.182 64.7836 254.813 74.7296H219.206ZM237.746 47.4716C219.575 47.4716 208.155 60.6096 208.155 80.2556C208.155 100.024 219.697 112.793 237.992 112.793C252.848 112.793 261.812 104.321 264.636 93.5156H254.077C252.603 98.0586 247.692 103.707 237.992 103.707C229.511 103.707 223.572 99.5096 220.772 92.2216C219.341 88.5006 216.702 85.3656 213.353 83.2016H218.96H265.373C267.951 61.7146 256.655 47.4716 237.746 47.4716Z" fill="#ffffff"/>
<path d="M285.3 49.3133C278.056 49.3133 273.88 53.4873 273.88 61.1003V110.951H284.441V68.9443C284.441 64.7823 282.329 60.9043 278.832 58.6443H284.441H304.7V49.3133H285.3Z" fill="#ffffff"/>
<path fill-rule="evenodd" clip-rule="evenodd" d="M113.033 105.5C109.65 109.231 105.475 111.793 99.8821 112.054C106.747 99.6598 111.215 85.4768 115.9 74.6818C117.937 85.3848 118.994 98.0338 113.708 104.724C113.482 104.995 113.262 105.249 113.033 105.5ZM113.033 34.4588C109.65 30.7268 105.475 28.1648 99.8821 27.9048C106.747 40.2978 111.215 54.4808 115.9 65.2768C117.937 54.5738 118.994 41.9238 113.708 35.2338C113.482 34.9638 113.262 34.7098 113.033 34.4588ZM31.9152 117.682C62.0172 114.944 87.1191 98.9698 108.793 80.3548C97.3551 102.806 87.0112 130.138 62.4662 131.54C61.5922 131.614 60.7391 131.652 59.8761 131.657C49.4851 131.85 39.3612 126.144 31.9152 117.682ZM31.9152 22.2758C62.0172 25.0148 87.1191 40.9878 108.793 59.6028C97.3551 37.1518 87.0112 9.81981 62.4662 8.41881C61.5922 8.34381 60.7391 8.3058 59.8761 8.3018C49.4851 8.1078 39.3612 13.8148 31.9152 22.2758ZM16.4672 107.506C7.00617 103.709 5.2671 89.7588 5.8921 77.8108C5.9721 76.0998 6.09618 74.3818 6.25318 72.6638H111.196C87.1272 90.8788 56.7421 108.656 27.7141 109.762C23.7201 109.658 19.8552 108.997 16.4672 107.506ZM5.8921 62.1478C5.9451 63.2928 6.16418 66.3358 6.25318 67.4858H111.196C87.2642 49.4758 56.4651 31.2918 27.7141 30.1968C23.7201 30.2998 19.8552 30.9618 16.4672 32.4528C7.00617 36.2498 5.2671 50.1998 5.8921 62.1478ZM2.90919 69.9788C2.26319 72.3648 1.69514 74.7968 1.23414 77.2608C-0.84886 89.1448 -2.1068 106.823 13.0962 114.751C17.4182 116.841 22.0721 117.743 26.5851 117.953C27.0631 118.912 27.5792 119.856 28.1282 120.782C34.2152 131.441 46.3921 140.258 59.9181 139.95C61.0161 139.944 62.0941 139.891 63.1921 139.794C79.5621 138.141 90.1061 128.154 97.7721 115.674C104.374 119.208 114.197 116.949 119.134 111.063C119.46 110.706 119.767 110.347 120.076 109.969C128.785 97.2858 124.252 84.0948 119.947 73.3578C119.508 72.3838 119.045 71.4298 118.543 70.4868C118.441 70.2988 118.311 70.1268 118.157 69.9788C118.311 69.8318 118.441 69.6588 118.543 69.4718C119.045 68.5278 119.508 67.5738 119.947 66.6008C124.252 55.8638 128.785 42.6718 120.076 29.9898C119.767 29.6108 119.46 29.2528 119.134 28.8958C114.197 23.0098 104.374 20.7508 97.7721 24.2848C90.1061 11.8038 79.5621 1.81681 63.1921 0.16481C62.0941 0.0668102 61.0161 0.0137972 59.9181 0.00779724C46.3921 -0.299203 34.2152 8.51779 28.1282 19.1758C27.5792 20.1028 27.0631 21.0468 26.5851 22.0058C22.0721 22.2158 17.4182 23.1168 13.0962 25.2068C-2.1068 33.1358 -0.84886 50.8128 1.23414 62.6978C1.69514 65.1618 2.26319 67.5938 2.90919 69.9788Z" fill="#ffffff"/>
</svg>