<svg xmlns="http://www.w3.org/2000/svg" fill="none" viewBox="70 419 1860 1162"><g id="Logo On White"><g id="Logo-Print" clip-path="url(#clip0)"><g id="TJ Logo" clip-path="url(#clip1)"><path id="Line" d="M995 1337V1437" stroke="#333333" stroke-width="30" stroke-linecap="square"></path><ellipse id="Oval 2" cx="999.203" cy="1094.84" rx="363.383" ry="345.164" stroke="#333333" stroke-width="30"></ellipse><path id="Triangle 1" fill-rule="evenodd" clip-rule="evenodd" d="M995.516 1317.27L982.805 748.023L697.367 594.594L995.516 1317.27Z" stroke="#333333" stroke-width="30"></path><path id="Triangle 3" fill-rule="evenodd" clip-rule="evenodd" d="M994.086 1343.8V749.062L677.32 836.477L994.086 1343.8Z" stroke="#333333" stroke-width="30"></path><path id="Triangle 4" fill-rule="evenodd" clip-rule="evenodd" d="M995.32 1345.8V751.062L1312.09 838.477L995.32 1345.8Z" stroke="#333333" stroke-width="30"></path><path id="Triangle 2" fill-rule="evenodd" clip-rule="evenodd" d="M995.367 1319.27L1008.08 750.023L1293.52 596.594L995.367 1319.27Z" stroke="#333333" stroke-width="30"></path></g><circle id="Circle" cx="994" cy="1000" r="566" stroke="#333333" stroke-width="30"></circle><g id="Banner + Mask"><mask id="mask0" mask-type="alpha" maskUnits="userSpaceOnUse" x="70" y="1152" width="1860" height="304"><path id="Mask" fill-rule="evenodd" clip-rule="evenodd" d="M1668 1152H332V1192H70V1194L144 1268L70 1342V1344H332V1456H1668V1344H1930V1342L1856 1268L1930 1194V1192H1668V1152Z" fill="white"></path></mask><g mask="url(#mask0)"></g><g id="Banner" clip-path="url(#clip2)"><path id="Rectangle 2" fill-rule="evenodd" clip-rule="evenodd" d="M332 1192H70V1194L144 1268L70 1342V1344H332V1192Z" fill="#A1B6D5"></path><path id="Rectangle 3" fill-rule="evenodd" clip-rule="evenodd" d="M1668 1192H1930V1194L1856 1268L1930 1342V1344H1668V1192Z" fill="#A1B6D5"></path><g id="Rectangle 1" filter="url(#filter0_d)"><rect x="332" y="1152" width="1336" height="304" fill="#A1B6D5"></rect></g></g></g><path id="HACK TJ" d="M581.348 1452H573.438V1346.24H437.207V1452H429.297V1238.72H437.207V1338.33H573.438V1238.72H581.348V1452ZM754.932 1388.28H650.488L626.758 1452H618.115L697.949 1238.72H707.617L787.451 1452H778.809L754.932 1388.28ZM653.418 1380.37H752.002L702.783 1248.24L653.418 1380.37ZM965.137 1386.67C963.086 1408.64 955.518 1425.54 942.432 1437.35C929.346 1449.07 911.572 1454.93 889.111 1454.93C873.975 1454.93 860.547 1451.12 848.828 1443.5C837.207 1435.79 828.174 1424.9 821.729 1410.84C815.283 1396.68 812.012 1380.52 811.914 1362.35V1329.39C811.914 1311.23 815.088 1295.02 821.436 1280.76C827.783 1266.4 836.816 1255.32 848.535 1247.51C860.352 1239.7 873.877 1235.79 889.111 1235.79C911.377 1235.79 929.102 1241.65 942.285 1253.37C955.469 1265.09 963.086 1281.88 965.137 1303.76H957.227C954.98 1284.13 948.145 1269.24 936.719 1259.08C925.293 1248.83 909.424 1243.7 889.111 1243.7C868.408 1243.7 851.66 1251.51 838.867 1267.14C826.172 1282.76 819.824 1303.71 819.824 1329.98V1361.33C819.824 1378.12 822.656 1393.02 828.32 1406C833.984 1418.89 842.09 1428.95 852.637 1436.18C863.281 1443.41 875.439 1447.02 889.111 1447.02C909.521 1447.02 925.439 1441.99 936.865 1431.93C948.389 1421.87 955.176 1406.79 957.227 1386.67H965.137ZM1056.69 1339.79L1022.56 1371.29V1452H1014.65V1238.72H1022.56V1362.06L1057.71 1327.63L1146.19 1238.72H1157.62L1062.55 1334.37L1164.94 1452H1154.69L1056.69 1339.79ZM1412.94 1246.63H1335.3V1452H1327.39V1246.63H1249.76V1238.72H1412.94V1246.63ZM1514.16 1238.72H1522.07V1387.25C1522.07 1407.86 1516.46 1424.31 1505.22 1436.62C1493.99 1448.83 1479.1 1454.93 1460.55 1454.93C1440.62 1454.93 1425.39 1449.61 1414.84 1438.96C1404.3 1428.32 1399.02 1413.08 1399.02 1393.26H1406.93C1406.93 1410.64 1411.38 1423.97 1420.26 1433.25C1429.25 1442.43 1442.68 1447.02 1460.55 1447.02C1476.17 1447.02 1488.92 1441.79 1498.78 1431.35C1508.74 1420.9 1513.87 1406.69 1514.16 1388.72V1238.72Z" fill="white"></path></g><g id="Logo-Print_2"><g id="TJ Logo_2"><path id="Line_2" d="M995 1337V1437" stroke="#333333" stroke-width="30" stroke-linecap="square"></path><ellipse id="Oval 2_2" cx="999.203" cy="1094.84" rx="363.383" ry="345.164" stroke="#333333" stroke-width="30"></ellipse><path id="Triangle 1_2" fill-rule="evenodd" clip-rule="evenodd" d="M995.516 1317.27L982.805 748.023L697.367 594.594L995.516 1317.27Z" stroke="#333333" stroke-width="30"></path><path id="Triangle 3_2" fill-rule="evenodd" clip-rule="evenodd" d="M994.086 1343.8V749.062L677.32 836.477L994.086 1343.8Z" stroke="#333333" stroke-width="30"></path><path id="Triangle 4_2" fill-rule="evenodd" clip-rule="evenodd" d="M995.32 1345.8V751.062L1312.09 838.477L995.32 1345.8Z" stroke="#333333" stroke-width="30"></path><path id="Triangle 2_2" fill-rule="evenodd" clip-rule="evenodd" d="M995.367 1319.27L1008.08 750.023L1293.52 596.594L995.367 1319.27Z" stroke="#333333" stroke-width="30"></path></g><circle id="Circle_2" cx="994" cy="1000" r="566" stroke="#333333" stroke-width="30"></circle><g id="Banner + Mask_2"><mask id="mask1" mask-type="alpha" maskUnits="userSpaceOnUse" x="70" y="1152" width="1860" height="304"><path id="Mask_2" fill-rule="evenodd" clip-rule="evenodd" d="M1668 1152H332V1192H70V1194L144 1268L70 1342V1344H332V1456H1668V1344H1930V1342L1856 1268L1930 1194V1192H1668V1152Z" fill="white"></path></mask><g mask="url(#mask1)"></g><g id="Banner_2" clip-path="url(#clip3)"><path id="Rectangle 2_2" fill-rule="evenodd" clip-rule="evenodd" d="M332 1192H70V1194L144 1268L70 1342V1344H332V1192Z" fill="#33CCCC"></path><path id="Rectangle 3_2" fill-rule="evenodd" clip-rule="evenodd" d="M1668 1192H1930V1194L1856 1268L1930 1342V1344H1668V1192Z" fill="#33CCCC"></path><g id="Rectangle 1_2" filter="url(#filter1_d)"><rect x="332" y="1152" width="1336" height="304" fill="#33CCCC"></rect></g></g></g><path id="HACK TJ_2" d="M605.957 1414H598.047V1308.24H461.816V1414H453.906V1200.72H461.816V1300.33H598.047V1200.72H605.957V1414ZM779.541 1350.28H675.098L651.367 1414H642.725L722.559 1200.72H732.227L812.061 1414H803.418L779.541 1350.28ZM678.027 1342.37H776.611L727.393 1210.24L678.027 1342.37ZM989.746 1348.67C987.695 1370.64 980.127 1387.54 967.041 1399.35C953.955 1411.07 936.182 1416.93 913.721 1416.93C898.584 1416.93 885.156 1413.12 873.438 1405.5C861.816 1397.79 852.783 1386.9 846.338 1372.84C839.893 1358.68 836.621 1342.52 836.523 1324.35V1291.39C836.523 1273.23 839.697 1257.02 846.045 1242.76C852.393 1228.4 861.426 1217.32 873.145 1209.51C884.961 1201.7 898.486 1197.79 913.721 1197.79C935.986 1197.79 953.711 1203.65 966.895 1215.37C980.078 1227.09 987.695 1243.88 989.746 1265.76H981.836C979.59 1246.13 972.754 1231.24 961.328 1221.08C949.902 1210.83 934.033 1205.7 913.721 1205.7C893.018 1205.7 876.27 1213.51 863.477 1229.14C850.781 1244.76 844.434 1265.71 844.434 1291.98V1323.33C844.434 1340.12 847.266 1355.02 852.93 1368C858.594 1380.89 866.699 1390.95 877.246 1398.18C887.891 1405.41 900.049 1409.02 913.721 1409.02C934.131 1409.02 950.049 1403.99 961.475 1393.93C972.998 1383.87 979.785 1368.79 981.836 1348.67H989.746ZM1081.3 1301.79L1047.17 1333.29V1414H1039.26V1200.72H1047.17V1324.06L1082.32 1289.63L1170.8 1200.72H1182.23L1087.16 1296.37L1189.55 1414H1179.3L1081.3 1301.79ZM1437.55 1208.63H1359.91V1414H1352V1208.63H1274.37V1200.72H1437.55V1208.63ZM1538.77 1200.72H1546.68V1349.25C1546.68 1369.86 1541.06 1386.31 1529.83 1398.62C1518.6 1410.83 1503.71 1416.93 1485.16 1416.93C1465.23 1416.93 1450 1411.61 1439.45 1400.96C1428.91 1390.32 1423.63 1375.08 1423.63 1355.26H1431.54C1431.54 1372.64 1435.99 1385.97 1444.87 1395.25C1453.86 1404.43 1467.29 1409.02 1485.16 1409.02C1500.78 1409.02 1513.53 1403.79 1523.39 1393.35C1533.35 1382.9 1538.48 1368.69 1538.77 1350.72V1200.72Z" fill="white"></path></g></g><defs><filter id="filter0_d" x="306" y="1126" width="1388" height="356" filterUnits="userSpaceOnUse" color-interpolation-filters="sRGB"><feFlood flood-opacity="0" result="BackgroundImageFix"></feFlood><feColorMatrix in="SourceAlpha" type="matrix" values="0 0 0 0 0 0 0 0 0 0 0 0 0 0 0 0 0 0 127 0"></feColorMatrix><feMorphology radius="3" operator="dilate" in="SourceAlpha" result="effect1_dropShadow"></feMorphology><feOffset></feOffset><feGaussianBlur stdDeviation="5"></feGaussianBlur><feColorMatrix type="matrix" values="0 0 0 0 0 0 0 0 0 0 0 0 0 0 0 0 0 0 0.5 0"></feColorMatrix><feBlend mode="normal" in2="BackgroundImageFix" result="effect1_dropShadow"></feBlend><feBlend mode="normal" in="SourceGraphic" in2="effect1_dropShadow" result="shape"></feBlend></filter><filter id="filter1_d" x="306" y="1126" width="1388" height="356" filterUnits="userSpaceOnUse" color-interpolation-filters="sRGB"><feFlood flood-opacity="0" result="BackgroundImageFix"></feFlood><feColorMatrix in="SourceAlpha" type="matrix" values="0 0 0 0 0 0 0 0 0 0 0 0 0 0 0 0 0 0 127 0"></feColorMatrix><feMorphology radius="3" operator="dilate" in="SourceAlpha" result="effect1_dropShadow"></feMorphology><feOffset></feOffset><feGaussianBlur stdDeviation="5"></feGaussianBlur><feColorMatrix type="matrix" values="0 0 0 0 0 0 0 0 0 0 0 0 0 0 0 0 0 0 0.5 0"></feColorMatrix><feBlend mode="normal" in2="BackgroundImageFix" result="effect1_dropShadow"></feBlend><feBlend mode="normal" in="SourceGraphic" in2="effect1_dropShadow" result="shape"></feBlend></filter><clipPath id="clip0"><rect width="930" height="566" fill="white" transform="translate(70 434) scale(2)"></rect></clipPath><clipPath id="clip1"><rect width="365" height="424" fill="white" transform="translate(634 594) scale(2)"></rect></clipPath><clipPath id="clip2"><rect width="930" height="152" fill="white" transform="translate(70 1152) scale(2)"></rect></clipPath><clipPath id="clip3"><rect width="930" height="152" fill="white" transform="translate(70 1152) scale(2)"></rect></clipPath></defs></svg>
