<?xml version="1.0" encoding="UTF-8" standalone="no"?>
<svg width="930px" height="576px" viewBox="0 0 930 576" version="1.1" xmlns="http://www.w3.org/2000/svg" xmlns:xlink="http://www.w3.org/1999/xlink" xmlns:sketch="http://www.bohemiancoding.com/sketch/ns">
    <!-- Generator: Sketch 3.2.2 (9983) - http://www.bohemiancoding.com/sketch -->
    <title>Logo-Light@2x</title>
    <desc>Created with Sketch.</desc>
    <defs>
        <path d="M0,20 L131,20 L131,96 L0,96 L0,20 Z M37,58 L-7.10542736e-15,95 L7.10542736e-15,21 L37,58 Z M930,20 L799,20 L799,96 L930,96 L930,20 Z M893,58 L930,95 L930,21 L893,58 Z M131,0 L799,0 L799,152 L131,152 L131,0 Z" id="path-1"></path>
        <filter x="-50%" y="-50%" width="200%" height="200%" filterUnits="objectBoundingBox" id="filter-3">
            <feMorphology radius="3" in="SourceAlpha" operator="dilate" result="shadowSpreadOuter1"></feMorphology>
            <feOffset dx="0" dy="0" in="shadowSpreadOuter1" result="shadowOffsetOuter1"></feOffset>
            <feGaussianBlur stdDeviation="5" in="shadowOffsetOuter1" result="shadowBlurOuter1"></feGaussianBlur>
            <feColorMatrix values="0 0 0 0 0   0 0 0 0 0   0 0 0 0 0  0 0 0 0.35 0" in="shadowBlurOuter1" type="matrix" result="shadowMatrixOuter1"></feColorMatrix>
            <feMerge>
                <feMergeNode in="shadowMatrixOuter1"></feMergeNode>
                <feMergeNode in="SourceGraphic"></feMergeNode>
            </feMerge>
        </filter>
    </defs>
    <g id="Page-1" stroke="none" stroke-width="1" fill="none" fill-rule="evenodd" sketch:type="MSPage">
        <g id="Logo-Light" sketch:type="MSLayerGroup" transform="translate(0.000000, 5.000000)">
            <g id="TJ-Logo" transform="translate(282.000000, 81.000000)" stroke="#FFFFFF" stroke-width="10" sketch:type="MSShapeGroup">
                <path d="M178,371.5 L178,435.5" id="Line" stroke-linecap="square"></path>
                <path d="M179.5,423 C275.873689,423 364.292969,344.873689 364.292969,248.5 C364.292969,152.126311 275.873689,77.8359375 179.5,77.8359375 C83.1263112,77.8359375 0.91015625,152.126311 0.91015625,248.5 C0.91015625,344.873689 83.1263112,423 179.5,423 Z" id="Oval-2"></path>
                <polygon id="Triangle-1" transform="translate(106.220703, 180.964844) scale(1, -1) translate(-106.220703, -180.964844) " points="180.757812 0.296875 174.402344 284.917969 31.6835938 361.632812 "></polygon>
                <polygon id="Triangle-3" transform="translate(100.851562, 226.216797) scale(1, -1) translate(-100.851562, -226.216797) " points="180.042969 77.53125 180.042969 374.902344 21.6601562 331.195312 "></polygon>
                <polygon id="Triangle-4" transform="translate(259.851562, 227.216797) scale(-1, -1) translate(-259.851562, -227.216797) " points="339.042969 78.53125 339.042969 375.902344 180.660156 332.195312 "></polygon>
                <polygon id="Triangle-2" transform="translate(255.220703, 181.964844) scale(-1, -1) translate(-255.220703, -181.964844) " points="329.757812 1.296875 323.402344 285.917969 180.683594 362.632812 "></polygon>
            </g>
            <circle id="Circle" stroke="#333333" stroke-width="10" sketch:type="MSShapeGroup" cx="462" cy="283" r="283"></circle>
            <g id="Banner-+-Mask" transform="translate(0.000000, 359.000000)">
                <mask id="mask-2" sketch:name="Mask" fill="white">
                    <use xlink:href="#path-1"></use>
                </mask>
                <use id="Mask" sketch:type="MSShapeGroup" xlink:href="#path-1"></use>
                <g id="Banner" mask="url(#mask-2)" fill="#EA5C5C" sketch:type="MSShapeGroup">
                    <path d="M0,20 L131,20 L131,96 L0,96 L0,20 Z M37,58 L-7.10542736e-15,95 L7.10542736e-15,21 L37,58 Z" id="Rectangle-2"></path>
                    <path d="M799,20 L930,20 L930,96 L799,96 L799,20 Z M836,58 L799,95 L799,21 L836,58 Z" id="Rectangle-3" transform="translate(864.500000, 58.000000) scale(-1, 1) translate(-864.500000, -58.000000) "></path>
                    <rect id="Rectangle-1" filter="url(#filter-3)" x="131" y="0" width="668" height="152"></rect>
                </g>
            </g>
            <text id="HACK-TJ" sketch:type="MSTextLayer" font-family="Roboto" font-size="150" font-style="condensed" font-weight="260" fill="#FFFFFF">
                <tspan x="165" y="486">HACK TJ</tspan>
            </text>
        </g>
    </g>
</svg>